<svg width="92" height="156" viewBox="0 0 92 156" fill="none" xmlns="http://www.w3.org/2000/svg">
<g opacity="1">
<path d="M62.1746 1.64364C62.8373 1.17513 63.5392 0.940878 64.3189 0.862793V0.901833C65.8782 0.784705 67.3984 1.44843 68.295 2.73684C83.6543 24.4836 91.9187 49.8222 91.9187 77.2301C91.9187 104.638 83.2255 131.304 67.0865 153.363C65.6831 155.315 62.9153 155.745 60.9662 154.339C59.9916 153.636 59.368 152.621 59.1731 151.45C59.0172 150.279 59.2899 149.108 59.9916 148.131C75 127.556 83.1475 102.1 83.1475 77.1911C83.1475 52.2819 75.429 28.0364 61.1223 7.77333C60.4595 6.83631 60.1867 5.66503 60.3816 4.49375C60.5765 3.32247 61.2001 2.30737 62.1746 1.64364Z" fill="url(#paint0_linear_46_1594)"/>
<path d="M33.0154 18.2758C33.834 17.6902 34.8087 17.3778 35.7833 17.3778L35.7442 17.3388C37.0697 17.3778 38.3171 18.0025 39.1358 19.0566C51.8832 35.6888 58.7831 55.4053 58.7831 77.152C58.7831 98.8987 51.4154 119.982 37.8493 136.887C37.1086 137.824 36.056 138.41 34.8865 138.527C33.717 138.683 32.5477 138.332 31.6511 137.59C29.7799 136.067 29.4679 133.334 30.9882 131.421C43.3068 116.077 50.0509 96.2829 50.0509 77.1911C50.0509 58.0992 43.7746 39.554 32.1967 24.4445C31.495 23.5465 31.1832 22.3753 31.3392 21.204C31.4951 20.0327 32.0798 18.9786 33.0154 18.2758Z" fill="url(#paint1_linear_46_1594)"/>
<path d="M2.92059 35.4545C3.77822 34.6346 4.94751 34.2442 6.11701 34.2833C7.2865 34.3613 8.37812 34.8689 9.15778 35.7278C19.4883 47.0111 25.2188 61.0665 25.2188 77.1911C25.2188 93.3157 18.9035 108.737 7.63739 120.216C6.81875 121.075 5.68829 121.543 4.5188 121.543C3.34931 121.543 2.21885 121.075 1.4002 120.255C-0.315051 118.537 -0.315094 115.765 1.36118 114.047C10.99 104.248 16.4086 91.0121 16.4086 77.1911C16.4086 64.0337 11.4968 51.3449 2.64769 41.6623C1.04939 39.8663 1.12737 37.0943 2.92059 35.4545Z" fill="url(#paint2_linear_46_1594)"/>
</g>
<defs>
<linearGradient id="paint0_linear_46_1594" x1="-8.80476" y1="-15.6161" x2="123.249" y2="5.77543" gradientUnits="userSpaceOnUse">
<stop stop-color="#E5953F"/>
<stop offset="1" stop-color="#D23F78"/>
</linearGradient>
<linearGradient id="paint1_linear_46_1594" x1="-8.80476" y1="-15.6161" x2="123.249" y2="5.77543" gradientUnits="userSpaceOnUse">
<stop stop-color="#E5953F"/>
<stop offset="1" stop-color="#D23F78"/>
</linearGradient>
<linearGradient id="paint2_linear_46_1594" x1="-8.80476" y1="-15.6161" x2="123.249" y2="5.77543" gradientUnits="userSpaceOnUse">
<stop stop-color="#E5953F"/>
<stop offset="1" stop-color="#D23F78"/>
</linearGradient>
</defs>
</svg>
