<svg width="25" height="25" viewBox="0 0 25 25" fill="none" xmlns="http://www.w3.org/2000/svg">
<path fill-rule="evenodd" clip-rule="evenodd" d="M25 6.5407C25 2.94118 22.0588 0 18.4593 0H6.5407C2.94118 0 0 2.94118 0 6.5407V18.4593C0 22.0588 2.94118 25 6.5407 25H18.4593C22.0588 25 25 22.0588 25 18.4593V6.5407ZM13.0031 11.9379L18.9505 7H6.04287L11.9902 11.9379C12.1366 12.0569 12.3142 12.1214 12.4967 12.1214C12.6791 12.1214 12.8568 12.0569 13.0031 11.9379ZM13.6395 12.8583L19.9434 7.61724C19.9783 7.7125 19.9975 7.81385 20 7.91673V16.0833C20 16.3271 19.9117 16.5608 19.754 16.7328C19.5963 16.9047 19.3828 17.0009 19.1604 17H5.83296C5.61167 16.9991 5.39982 16.902 5.24378 16.73C5.08774 16.5584 5 16.3258 5 16.0833V7.90942C5.00111 7.80959 5.01805 7.71068 5.04998 7.61724L11.3538 12.8583C11.6829 13.131 12.0841 13.2783 12.4967 13.2783C12.9093 13.2783 13.3105 13.131 13.6395 12.8583Z" fill="white"/>
</svg>
