<svg width="20" height="19" viewBox="0 0 20 19" fill="none" xmlns="http://www.w3.org/2000/svg">
<path d="M19.1493 4.97093C19.1493 2.23529 16.9169 0 14.1848 0H5.13839C2.40629 0 0.173889 2.23529 0.173889 4.97093V14.0291C0.173889 16.7647 2.40629 19 5.13839 19H8.18199V12.5605H5.77437V9.8119H8.18199V7.71956C8.18199 5.34131 9.59671 4.02223 11.7642 4.02223C12.8026 4.02223 13.8863 4.21067 13.8863 4.21067V6.54993H12.6922C11.5111 6.54993 11.1477 7.2842 11.1477 8.03146V9.8119H13.7825L13.3607 12.5605H11.1477V19H14.1913C16.9234 19 19.1558 16.7647 19.1558 14.0291V4.97093H19.1493Z" fill="white"/>
</svg>
