<svg width="20" height="19" viewBox="0 0 20 19" fill="none" xmlns="http://www.w3.org/2000/svg">
<path d="M10.2405 7.74556C9.27355 7.74556 8.48831 8.53181 8.48831 9.50001C8.48831 10.4682 9.27355 11.2545 10.2405 11.2545C11.2074 11.2545 11.9927 10.4682 11.9927 9.50001C11.9927 8.53181 11.2074 7.74556 10.2405 7.74556Z" fill="white"/>
<path d="M12.4145 4.97743H7.97564C6.71018 4.97743 5.67834 6.01061 5.67834 7.27771V11.7223C5.67834 12.9894 6.71018 14.0226 7.97564 14.0226H12.4145C13.68 14.0226 14.7118 12.9894 14.7118 11.7223V7.27771C14.7118 6.01061 13.68 4.97743 12.4145 4.97743ZM10.2405 12.2421C8.72843 12.2421 7.50191 11.014 7.50191 9.5C7.50191 7.98598 8.72843 6.75787 10.2405 6.75787C11.7526 6.75787 12.9791 7.98598 12.9791 9.5C12.9791 11.014 11.7526 12.2421 10.2405 12.2421ZM13.1413 7.22572C12.7779 7.22572 12.4859 6.93331 12.4859 6.56943C12.4859 6.20554 12.7779 5.91314 13.1413 5.91314C13.5047 5.91314 13.7968 6.20554 13.7968 6.56943C13.7968 6.93331 13.5047 7.22572 13.1413 7.22572Z" fill="white"/>
<path d="M14.7183 0H5.67184C2.93974 0 0.707336 2.23529 0.707336 4.97093V14.0291C0.707336 16.7647 2.93974 19 5.67184 19H14.7183C17.4504 19 19.6828 16.7647 19.6828 14.0291V4.97093C19.6828 2.23529 17.4504 0 14.7183 0ZM15.7566 11.7223C15.7566 13.5677 14.2575 15.0687 12.4145 15.0687H7.97563C6.1326 15.0687 4.63351 13.5677 4.63351 11.7223V7.2777C4.63351 5.43228 6.1326 3.93126 7.97563 3.93126H12.4145C14.2575 3.93126 15.7566 5.43228 15.7566 7.2777V11.7223Z" fill="white"/>
</svg>
