<svg width="20" height="19" viewBox="0 0 20 19" fill="none" xmlns="http://www.w3.org/2000/svg">
<path d="M19.6166 4.97093C19.6166 2.23529 17.3841 0 14.652 0H5.60562C2.87352 0 0.641113 2.23529 0.641113 4.97093V14.0291C0.641113 16.7647 2.87352 19 5.60562 19H14.652C17.3841 19 19.6166 16.7647 19.6166 14.0291V4.97093ZM7.98729 13.6457H6.15074V7.73256H7.98729V13.6457ZM7.06577 6.92681C6.47522 6.92681 6.00149 6.44596 6.00149 5.86115C6.00149 5.27633 6.47522 4.79549 7.06577 4.79549C7.65632 4.79549 8.13006 5.26984 8.13006 5.86115C8.13006 6.45246 7.65632 6.92681 7.06577 6.92681ZM14.8597 13.6457H13.0232V10.7736C13.0232 10.0848 13.0102 9.20759 12.0692 9.20759C11.1282 9.20759 10.966 9.95486 10.966 10.7281V13.6522H9.12944V7.73906H10.8881V8.5448H10.9141C11.1607 8.07695 11.7577 7.5896 12.6533 7.5896C14.5093 7.5896 14.8532 8.81122 14.8532 10.4032V13.6457H14.8597Z" fill="white"/>
</svg>
