<svg width="19" height="19" viewBox="0 0 19 19" fill="none" xmlns="http://www.w3.org/2000/svg">
<path d="M14.0109 0H4.9645C2.2324 0 0 2.23529 0 4.97093V14.0291C0 16.7647 2.2324 19 4.9645 19H14.0109C16.743 19 18.9754 16.7647 18.9754 14.0291V4.97093C18.9754 2.23529 16.743 0 14.0109 0ZM14.7702 6.25752C14.7702 6.25752 14.7702 6.3485 14.7183 6.41997C14.4782 6.74487 14.2121 7.03728 13.8941 7.2842C13.8487 7.31669 13.7708 7.35568 13.7708 7.42066C13.7708 9.12962 13.336 10.8386 12.09 12.0797C10.5066 13.6587 8.12491 14.0876 6.00932 13.5027C5.60048 13.3923 5.21111 13.2298 4.83471 13.0349C4.71141 12.9699 4.58811 12.8984 4.4713 12.8205C4.43885 12.7945 4.41938 12.775 4.44534 12.7555C4.4713 12.7425 4.49077 12.7425 4.58811 12.7555C5.17866 12.814 5.78868 12.723 6.34678 12.528C6.65179 12.4176 7.31372 12.2031 7.50192 11.9107C7.50192 11.9042 7.50841 11.9042 7.5149 11.8977C7.43702 11.8782 7.35915 11.8782 7.28127 11.8653C6.71019 11.7028 5.93794 11.4104 5.5875 10.4422C5.56803 10.3837 5.5875 10.3577 5.64591 10.3707C6.11964 10.4097 6.28837 10.3837 6.45061 10.3447C6.35976 10.3317 6.26241 10.2992 6.17805 10.2603C5.45771 9.98735 4.92557 9.27907 4.82822 8.51231C4.81524 8.42134 4.80876 8.34986 4.81524 8.26539C4.81524 8.20691 4.84769 8.19391 4.89312 8.2199C5.26302 8.41484 5.68484 8.46033 5.71729 8.45383C5.62644 8.38235 5.54207 8.30438 5.45771 8.2199C4.82822 7.62209 4.58811 6.41348 5.08781 5.65971C5.12674 5.60123 5.1527 5.60123 5.20462 5.65971C6.35327 6.9658 7.7615 7.57661 9.46825 7.83003C9.51368 7.83653 9.52017 7.83003 9.51368 7.77804C9.46825 7.47914 9.46176 7.18023 9.53315 6.88783C9.61102 6.58242 9.75379 6.29001 9.95497 6.04309C10.1497 5.80267 10.3898 5.60773 10.6623 5.46477C10.9349 5.32182 11.2334 5.23735 11.5384 5.21785C11.8499 5.19836 12.1679 5.25034 12.4599 5.36731C12.6806 5.45828 12.8753 5.58174 13.0635 5.73769C13.1024 5.77018 13.1348 5.80917 13.1738 5.84815C13.1933 5.86765 13.2257 5.88064 13.2581 5.86765C13.6929 5.75718 14.1018 5.60773 14.4977 5.3933C14.5171 5.3868 14.5301 5.3803 14.5561 5.3933C14.5755 5.40629 14.569 5.43228 14.5561 5.44528C14.4847 5.67921 14.3614 5.89364 14.2056 6.08208C14.1083 6.20554 13.8617 6.51094 13.6929 6.53694C14.0499 6.47845 14.4133 6.38748 14.7378 6.23803C14.7767 6.21854 14.7832 6.21204 14.7832 6.23803L14.7702 6.25752Z" fill="white"/>
</svg>
