<svg width="20" height="19" viewBox="0 0 20 19" fill="none" xmlns="http://www.w3.org/2000/svg">
<path d="M11.1873 9.40903L8.68883 8.04446C8.585 7.98598 8.23456 8.05745 8.23456 8.18091V10.8386C8.23456 10.9555 8.585 11.027 8.68234 10.975L11.2976 9.68194C11.4015 9.62346 11.2976 9.47401 11.1873 9.41552V9.40903Z" fill="white"/>
<path d="M14.166 0H5.11957C2.38747 0 0.15506 2.23529 0.15506 4.97093V14.0291C0.15506 16.7647 2.38747 19 5.11957 19H14.166C16.8981 19 19.1305 16.7647 19.1305 14.0291V4.97093C19.1305 2.23529 16.8981 0 14.166 0ZM14.7241 10.8321C14.7241 12.0927 13.7052 13.1129 12.4463 13.1129H6.61865C5.35968 13.1129 4.34082 12.0927 4.34082 10.8321V8.11594C4.34082 6.85534 5.35968 5.83516 6.61865 5.83516H12.4463C13.7052 5.83516 14.7241 6.85534 14.7241 8.11594V10.8321Z" fill="white"/>
</svg>
